<svg xmlns="http://www.w3.org/2000/svg" viewBox="0 0 24 24" fill="currentColor">
  <path d="M12 0C5.373 0 0 5.373 0 12s5.373 12 12 12 12-5.373 12-12S18.627 0 12 0zm6.5 12c0 3.59-2.003 6.71-4.955 8.333.01-.13.015-.261.015-.392 0-3.69-2.1-6.9-5.17-8.46.65.8 1.54 1.44 2.53 1.81-.9-.12-1.74-.41-2.5-.91-.01.02-.02.03-.03.05-1.51-1.65-2.45-3.83-2.45-6.2 0-.17 0-.34.01-.51 1.14.83 2.5 1.36 3.94 1.42.21-.02.41-.04.61-.07-.5-.58-.8-1.34-.8-2.16 0-.5.13-.97.36-1.38 1.82 2.16 4.53 3.59 7.58 3.74-.06-.25-.09-.51-.09-.77 0-1.86 1.5-3.36 3.35-3.36.96 0 1.83.41 2.44 1.06.75-.15 1.46-.43 2.1-.81-.24.76-.76 1.4-1.44 1.8.66-.08 1.29-.25 1.88-.5-.44.66-1 1.24-1.64 1.7.04.28.06.56.06.84 0 6.5-4.76 11.1-11.1 11.1-2.21 0-4.28-.64-6.03-1.74 3.04.36 5.85-1.02 7.13-3.32-1.08.02-2.08-.37-2.87-1-.1.02-.19.03-.29.03-.71 0-1.36-.25-1.87-.66.63.02 1.21.21 1.76.43-.57-.38-.95-1.02-1.15-1.76.2.03.4.05.61.05.29 0 .58-.04.85-.11-.6-.24-1.1-.68-1.35-1.28-.21.56-.08 1.15.1 1.62-1.02-.17-1.98-.56-2.78-1.23.1.32.26.62.47.9.2.28.45.51.73.7-.34.1-.7.12-1.05.04.3.93 1.15 1.57 2.15 1.6-.4.1-.8.06-1.18-.04.34 1.06 1.32 1.8 2.48 1.82-.9.7-2.05 1.12-3.3 1.12-.22 0-.43-.01-.64-.03 1.17.75 2.56 1.18 4.05 1.18 4.86 0 7.52-4.04 7.52-7.52 0-.11 0-.23-.01-.34.52-.38.97-.85 1.32-1.39-.48.21-.99.36-1.52.42.56-.34.98-.87 1.18-1.5-.52.31-1.1.53-1.71.66.31-.19.58-.42.8-.69-.2.29-.44.54-.72.75z"/>
</svg>
